<svg xmlns="http://www.w3.org/2000/svg" viewBox="0 0 64 64">
  <defs>
    <clipPath id="disc"><circle cx="32" cy="32" r="22.5"/></clipPath>
  </defs>
  <g fill="#cd8030">
    <rect x="0.5" y="27" width="9" height="2" rx="1"/>
    <rect x="0.5" y="31" width="9" height="2" rx="1"/>
    <rect x="0.5" y="35" width="9" height="2" rx="1"/>
    <rect x="54.5" y="27" width="9" height="2" rx="1"/>
    <rect x="54.5" y="31" width="9" height="2" rx="1"/>
    <rect x="54.5" y="35" width="9" height="2" rx="1"/>
    <rect x="27" y="0.5" width="2" height="9" rx="1"/>
    <rect x="35" y="0.5" width="2" height="9" rx="1"/>
    <rect x="27" y="54.5" width="2" height="9" rx="1"/>
    <rect x="35" y="54.5" width="2" height="9" rx="1"/>
  </g>
  <circle cx="32" cy="32" r="25.5" fill="#0b2349"/>
  <circle cx="32" cy="32" r="24" fill="#fff"/>
  <circle cx="32" cy="32" r="22.5" fill="#0b2349"/>
  <g clip-path="url(#disc)">
    <circle cx="30" cy="35" r="9.5" fill="none" stroke="#cd8030" stroke-width="2.4"/>
    <path d="M8 42Q17 37 26 41T43 41T58 38V58H8Z" fill="#2f8fc4"/>
    <path d="M8 46.5Q18 42 27 45.5T44 45T58 43V58H8Z" fill="#6cc3e3"/>
    <path d="M8 51Q19 48 29 50.5T58 49V58H8Z" fill="#2f8fc4"/>
  </g>
  <path d="M32 1 34.5 15H29.5ZM32 63 34.5 49H29.5Z" fill="#0b2349" stroke="#fff" stroke-width="1" stroke-linejoin="round"/>
  <path d="M21 16 22.1 19.4 25.5 20.5 22.1 21.6 21 25 19.9 21.6 16.5 20.5 19.9 19.4Z" fill="#fff"/>
</svg>
